# xmcd
#
# Track frame offsets: 
#        150
#        19877
#        42572
#        61811
#        83568
#        95510
#        117071
#        132449
#        153448
#        174796
#
# Disc length: 2565 seconds
#
# Revision: 0
# Processed by: cddbd v1.5.2PL0 Copyright (c) Steve Scherf et al.
# Submitted via: ExactAudioCopy v0.99pb5
#
DISCID=750a030a
DTITLE=John Foxx And The Maths - Interplay
DYEAR=2011
DGENRE=Synthpop
TTITLE0=Shatterproof
TTITLE1=Catwalk
TTITLE2=Evergreen
TTITLE3=Watching A Building On Fire
TTITLE4=Interplay
TTITLE5=Summerland
TTITLE6=The Running Man
TTITLE7=A Falling Star
TTITLE8=Destination
TTITLE9=The Good Shadow
EXTD=
EXTT0=
EXTT1=
EXTT2=
EXTT3=
EXTT4=
EXTT5=
EXTT6=
EXTT7=
EXTT8=
EXTT9=
PLAYORDER=
